<svg height="512" viewBox="0 0 192 192" width="512" xmlns="http://www.w3.org/2000/svg" xmlns:xlink="http://www.w3.org/1999/xlink"><linearGradient id="New_Gradient_Swatch_1" gradientUnits="userSpaceOnUse" x1="12.343" x2="171.657" y1="199.657" y2="40.343"><stop offset="0" stop-color="#34cdfa"/><stop offset="1" stop-color="#e8d9f1"/></linearGradient><path d="m184 56h-84.534l-12.63-13.472a8 8 0 0 0 -5.836-2.528h-73a8 8 0 0 0 -8 8v136a8 8 0 0 0 8 8h176a8 8 0 0 0 8-8v-120a8 8 0 0 0 -8-8z" fill="url(#New_Gradient_Swatch_1)"/><path d="m191.761 38.06-8-32a8 8 0 0 0 -9.7-5.821l-32 8 3.88 15.522 13.586-3.4-41.209 70.644-8.661-8.662a8 8 0 0 0 -12.057.857l-19.459 25.946-17.7-11.8a8 8 0 0 0 -10.841 1.854l-24 32 12.8 9.6 19.459-25.946 17.7 11.8a8 8 0 0 0 10.841-1.854l18.465-24.62 9.478 9.477a8 8 0 0 0 12.567-1.626l46.1-79.021 3.233 12.93z" fill="#ccf2fe"/><g fill="#fff"><path d="m112 128h56v16h-56z"/><path d="m88 152h80v16h-80z"/></g></svg>