<svg height="512" viewBox="0 0 192 192" width="512" xmlns="http://www.w3.org/2000/svg" xmlns:xlink="http://www.w3.org/1999/xlink"><linearGradient id="New_Gradient_Swatch_1" gradientUnits="userSpaceOnUse" x1="37.173" x2="154.827" y1="141.173" y2="23.519"><stop offset="0" stop-color="#34cdfa"/><stop offset="1" stop-color="#e8d9f1"/></linearGradient><path d="m160 24h-128a16.019 16.019 0 0 0 -16 16v88a8 8 0 0 0 8 8h144a8 8 0 0 0 8-8v-88a16.019 16.019 0 0 0 -16-16z" fill="#e6f9fe"/><path d="m24 128v-88a8.009 8.009 0 0 1 8-8h128a8.009 8.009 0 0 1 8 8v88z" fill="url(#New_Gradient_Swatch_1)"/><path d="m0 128v8a16 16 0 0 0 16 16h160a16 16 0 0 0 16-16v-8z" fill="#67d9fb"/><path d="m80 128h32v8h-32z" fill="#01c0f9"/><path d="m112 112a8 8 0 0 1 -6.247-3l-26.416-33.023-17.68 17.68a8 8 0 0 1 -11.314 0l-16-16 11.314-11.314 10.343 10.343 18.343-18.343a8 8 0 0 1 11.9.659l25.392 31.74 33.855-47.392 13.02 9.3-40 56a8 8 0 0 1 -6.292 3.35c-.072 0-.146 0-.218 0z" fill="#fff"/></svg>